# xmcd
#
# Track frame offsets: 
#        150
#        2487
#        16308
#        28595
#        40717
#        45075
#        62004
#        65767
#        75784
#        86812
#        112389
#        134260
#        140868
#        156854
#        160884
#        177866
#        184806
#        199608
#        208084
#        223266
#        225258
#        238236
#        252257
#        269512
#        278269
#        300981
#        311061
#
# Disc length: 4314 seconds
#
# Revision: 0
# Processed by: cddbd v1.5.2PL0 Copyright (c) Steve Scherf et al.
# Submitted via: ExactAudioCopy v0.95b4
#
DISCID=7210d81b
DTITLE=Rory Block - Sheldon Concert Hall, Sept. 27, 2002
DYEAR=2002
DGENRE=Blues
TTITLE0=Intro
TTITLE1=Prachin' Blues
TTITLE2=If I Had Possession Over Judgement Day
TTITLE3=Terraplane Blues
TTITLE4=Hawkin's Blues Intro
TTITLE5=Hawkin's Blues
TTITLE6=Titanic Intro
TTITLE7=Titanic (When That Great Ship Went Down)
TTITLE8=Maggie Campbell Blues
TTITLE9=Like A Shotgun Intro
TTITLE10=Like A Shotgun
TTITLE11=Ain't No Grave Can Hold My Body Down Intro
TTITLE12=Ain't No Grave Can Hold My Body Down
TTITLE13=Lovin' Whiskey Intro
TTITLE14=Lovin' Whiskey
TTITLE15=The Water Is Wide Intro
TTITLE16=The Water Is Wide
TTITLE17=Big Road Blues Intro
TTITLE18=Big Road Blues
TTITLE19=Canned Heat Intro
TTITLE20=Canned Heat
TTITLE21=Silver Wings Intro
TTITLE22=Silver Wings
TTITLE23=Mama's Blues Intro
TTITLE24=Mama's Blues
TTITLE25=Uncloudy Day Intro
TTITLE26=Uncloudy Day
EXTD=
EXTT0=
EXTT1=
EXTT2=
EXTT3=
EXTT4=
EXTT5=
EXTT6=
EXTT7=
EXTT8=
EXTT9=
EXTT10=
EXTT11=
EXTT12=
EXTT13=
EXTT14=
EXTT15=
EXTT16=
EXTT17=
EXTT18=
EXTT19=
EXTT20=
EXTT21=
EXTT22=
EXTT23=
EXTT24=
EXTT25=
EXTT26=
PLAYORDER=
